<svg version="1.0" xmlns="http://www.w3.org/2000/svg" viewBox="0 0 300 301"><g fill="#00ba3e"><path d="M143 11.4c-1.9.8-7.3 2.7-12 4.4C30.5 51.9 31.9 51.3 29.4 56.2 28.3 58.4 28 65.8 28 94c0 46.3 1.3 58.2 9.1 81.5 4.6 13.7 14.4 33.1 22.3 44.4 18.6 26.3 41.7 45.7 76.9 64.6 9.3 4.9 11.4 5.7 14.7 5.2 4.2-.5 23.6-10.8 37-19.4 39.2-25.4 67.9-64.2 78.4-105.9 4.9-19.5 5.6-28.2 5.6-69.2v-38l-2.8-2.9c-3.8-3.8-8.1-5.6-40.7-17.4C148.8 8.2 150.1 8.6 143 11.4m28.6 27.2c9.9 3.6 24.4 9 32.4 11.9 28 10.2 44.5 16.6 45.4 17.5.6.6.9 14.5.9 34.4-.2 37.9-1 45.5-7.3 64.6-11 33.6-33.5 63.2-63.5 83.2-11.8 7.9-25.6 14.8-29.7 14.8-8.8 0-36-17.6-53-34.3-13.3-13.1-23.3-26.7-31.2-42.4-6.2-12.5-8.2-17.8-11.6-31.7-4.2-16.9-5.2-29.3-4.8-60.3.3-25.9.4-27.3 2.3-28.7 1.8-1.4 10.5-4.7 45-17.2 6.6-2.4 20.3-7.5 30.5-11.3 10.7-4 20.2-6.9 22.6-7 2.9-.1 9.8 2 22 6.5"/><path d="M191 78c-51.8 4-91.3 29.9-96 63-1.8 12.4.9 25.2 7.6 36.6 1.4 2.4 2.9 4.4 3.3 4.4s1.3-1.9 2-4.3c.7-2.3 2.9-7.3 4.8-11.2 10.1-19.9 27.5-37.5 47-47.4 11.2-5.7 11.1-3.3-.1 6.4-26.8 23.4-39 49.8-35.7 77.5 1.3 10.3 3.6 17 8.6 25.6 4.9 8.1 7 9.7 11.8 9.1 4.4-.6 8.7-4.1 8.7-7 0-1.1-1.1-3.5-2.5-5.3-3.6-4.6-9-16.1-10.4-21.7-1.4-5.8-.8-6.9 5.1-8.6 8-2.4 21.1-9.1 29.1-14.8 15.2-11 26-27.3 31.4-47.8 2.5-9.3 2.6-11.5 2.7-31.8.1-18.3-.1-21.9-1.4-22.7-1.6-1.1-2-1.1-16 0"/></g></svg>
